<!doctype html>
<svg viewBox="1.784 4.677 283.342 280.825" width="283.342" height="280.825">
  <polygon points="143.455 285.502 252.299 244.548 285.126 32.468 143.455 4.677 1.784 32.468 34.61 244.548 143.455 285.502" fill="#f80000" style=""></polygon>
  <path d="M 143.455 167.819 C 119.63 167.819 94.683 162.744 84.368 153.193 L 84.368 171.066 C 84.368 182.446 110.819 191.66 143.455 191.66 C 176.091 191.66 202.541 182.446 202.541 171.066 L 202.541 153.163 C 192.315 162.729 167.348 167.819 143.455 167.819 Z" fill="#fff" style=""></path>
  <ellipse cx="143.542" cy="143.246" rx="59.087" ry="20.096" fill="#fff" style=""></ellipse>
  <polygon points="148.639 109.986 152.283 64.527 172.394 67.366 143.455 31.005 114.517 67.366 134.626 64.527 138.273 109.986 148.639 109.986" fill="#fff" style=""></polygon>
  <path d="M 52.353 67.307 C 68.041 69.135 82.934 72.836 95.062 81.934 C 98.724 84.963 102.184 88.161 105.428 91.513 L 106.344 92.362 L 119.717 85.196 L 111.078 112.429 L 81.708 99.164 L 81.708 98.753 L 95.011 96.355 C 86.13 79.754 69.786 72.222 49.642 69.165 L 52.353 67.307 Z" fill="#fff" style=""></path>
  <path d="M 234.556 67.307 C 218.869 69.135 203.976 72.836 191.847 81.934 C 188.188 84.963 184.726 88.161 181.481 91.513 L 180.566 92.362 L 167.194 85.196 L 175.833 112.429 L 205.203 99.164 L 205.203 98.753 L 191.9 96.355 C 200.78 79.754 217.124 72.222 237.269 69.165 L 234.556 67.307 Z" fill="#fff" style=""></path>
  <polygon points="202.629 175.498 202.629 175.498 202.611 175.498 202.629 175.498" fill="#fff" style=""></polygon>
  <polygon points="79.979 175.498 79.963 175.498 79.963 175.498 79.979 175.498" fill="#fff" style=""></polygon>
  <path d="M 143.455 196.106 C 114.758 196.106 90.709 189.348 84.368 180.282 L 84.368 199.295 C 84.368 210.674 110.819 219.889 143.455 219.889 C 176.091 219.889 202.541 210.674 202.541 199.295 L 202.541 180.282 C 196.272 189.348 172.238 196.106 143.455 196.106 Z" fill="#fff" style=""></path>
  <path d="M 143.455 224.379 C 114.758 224.379 90.709 217.621 84.368 208.554 L 84.368 227.567 C 84.368 238.947 110.819 248.161 143.455 248.161 C 176.091 248.161 202.541 238.947 202.541 227.567 L 202.541 208.554 C 196.272 217.636 172.238 224.379 143.455 224.379 Z" fill="#fff" style=""></path>
</svg>