<svg xmlns="http://www.w3.org/2000/svg" viewBox="0 0 288 288"><title>AppDev_ords_detailed</title><polygon points="144 240 207 212 226 67 144 48 62 67 81 212 144 240" fill="#f80000"/><path d="M144,159.54c-13.79,0-28.23-3.47-34.2-10v12.22c0,7.78,15.31,14.08,34.2,14.08s34.2-6.3,34.2-14.08V149.52C172.28,156.06,157.83,159.54,144,159.54Z" fill="#fff"/><ellipse cx="144.05" cy="142.74" rx="34.2" ry="13.74" fill="#fff"/><rect width="288" height="288" fill="none"/><polygon points="144 65.55 144 65.55 144 65.55 144 65.55" fill="#fff"/><polygon points="147 120 149.11 88.92 160.75 90.86 144 66 127.25 90.86 138.89 88.92 141 120 147 120" fill="#fff"/><path d="M91.27,90.82c9.08,1.25,17.7,3.78,24.72,10a80.51,80.51,0,0,1,6,6.55l.53.58,7.74-4.9-5,18.62-17-9.07v-.28l7.7-1.64c-5.14-11.35-14.6-16.5-26.26-18.59Z" fill="#fff"/><path d="M196.73,90.82c-9.08,1.25-17.7,3.78-24.72,10a80.51,80.51,0,0,0-6,6.55l-.53.58-7.74-4.9,5,18.62,17-9.07v-.28l-7.7-1.64c5.14-11.35,14.6-16.5,26.26-18.59Z" fill="#fff"/><polygon points="178.25 164.79 178.25 164.79 178.24 164.79 178.25 164.79" fill="#fff"/><polygon points="107.26 164.79 107.25 164.79 107.25 164.79 107.26 164.79" fill="#fff"/><path d="M144,178.88c-16.61,0-30.53-4.62-34.2-10.82v13c0,7.78,15.31,14.08,34.2,14.08s34.2-6.3,34.2-14.08v-13C174.57,174.26,160.66,178.88,144,178.88Z" fill="#fff"/><path d="M144,198.21c-16.61,0-30.53-4.62-34.2-10.82v13c0,7.78,15.31,14.08,34.2,14.08s34.2-6.3,34.2-14.08v-13C174.57,193.6,160.66,198.21,144,198.21Z" fill="#fff"/></svg>